<svg width="880" height="572" viewBox="0 0 880 572" fill="none" xmlns="http://www.w3.org/2000/svg">
<path d="M679.938 310.014C679.938 293.568 691.815 280.595 706.799 280.595C721.782 280.595 732.745 293.203 732.745 310.014C732.745 326.824 721.599 339.797 706.799 339.797C691.998 339.797 679.938 326.641 679.938 310.014ZM628.411 355.877H649.424V264.516H628.411V355.877ZM625.122 234.001C625.122 241.858 631.517 248.253 639.009 248.253C646.5 248.253 652.713 241.858 652.713 234.001C652.713 226.692 646.5 220.479 639.009 220.479C631.517 220.479 625.122 226.692 625.122 234.001ZM542.714 309.831C542.714 293.386 554.773 280.595 570.305 280.595C585.836 280.595 597.896 293.386 597.896 309.831C597.896 326.276 585.653 339.797 570.305 339.797C554.956 339.797 542.714 326.459 542.714 309.831ZM521.335 309.831C521.335 337.239 542.896 358.801 570.305 358.801C597.713 358.801 619.274 337.239 619.274 309.831C619.274 282.422 598.079 261.592 570.305 261.592C542.531 261.592 521.335 282.605 521.335 309.831ZM464.508 355.877H485.521V308.004C485.521 289 495.571 280.595 512.381 280.595C515.488 280.595 517.863 280.778 520.056 281.326V262.871C517.863 262.14 514.026 261.592 509.823 261.592C481.319 261.592 464.508 279.499 464.508 308.004V355.877ZM380.273 310.014C380.273 293.568 392.15 280.595 407.133 280.595C422.116 280.595 433.08 293.203 433.08 310.014C433.08 326.824 421.934 339.797 407.133 339.797C392.332 339.797 380.273 326.641 380.273 310.014ZM358.894 310.014C358.894 336.508 380.09 358.801 405.123 358.801C415.538 358.801 425.04 354.598 430.704 347.655H431.618V355.877H452.631V213.17H431.618V272.007H430.704C425.223 265.429 415.721 261.592 405.123 261.592C379.907 261.592 358.894 283.701 358.894 310.014ZM266.802 355.877H287.815V302.339C287.815 289.549 296.403 280.595 308.28 280.595C320.157 280.595 328.745 289.549 328.745 302.339V355.877H349.758V302.339C349.758 280.047 332.034 261.592 308.28 261.592C284.526 261.592 266.802 280.047 266.802 302.339V355.877ZM170.324 301.06L192.982 236.193H194.078L216.736 301.06H170.324ZM127.567 355.877H151.321L163.198 321.891H223.862L235.739 355.877H259.493L206.686 213.17H180.374L127.567 355.877ZM704.789 358.801C715.204 358.801 724.706 354.598 730.37 347.655H731.284V355.877H752.297V213.17H731.284V272.007H730.37C724.888 265.429 715.387 261.592 704.789 261.592C679.573 261.592 658.56 283.701 658.56 310.014C658.56 336.326 679.756 358.801 704.789 358.801Z" fill="#202124"/>
</svg>
